<svg width="200" height="200" viewBox="0 0 200 200" fill="none" xmlns="http://www.w3.org/2000/svg">
<g clip-path="url(#clip0_201_2)">
<path d="M163.091 68.1388C163.091 123.659 133.123 182.65 100 182.65C66.877 182.65 36.9085 123.975 36.9085 68.1388C36.9085 12.3028 67.1924 0 100 0C132.808 0 163.091 12.6183 163.091 68.1388Z" fill="#073A4B"/>
<path d="M100 0C132.808 0 163.091 12.6183 163.091 68.1388C163.091 123.659 133.123 182.65 100 182.65C66.877 182.65 36.9085 123.975 36.9085 68.1388" fill="#073A4B"/>
<path d="M100 0C132.808 0 163.091 12.6183 163.091 68.1388C163.091 123.659 133.123 182.65 100 182.65" fill="#00182C"/>
<path d="M85.1735 31.5457C85.1735 36.9085 80.7571 45.4259 75.0789 45.4259C69.7161 45.4259 64.9843 37.224 64.9843 31.5457C64.9843 26.183 69.4007 21.4511 75.0789 21.4511C80.4417 21.4511 85.1735 25.8675 85.1735 31.5457Z" fill="#022728"/>
<path d="M75.0789 41.6404C80.654 41.6404 85.1735 37.1209 85.1735 31.5457C85.1735 25.9706 80.654 21.4511 75.0789 21.4511C69.5038 21.4511 64.9843 25.9706 64.9843 31.5457C64.9843 37.1209 69.5038 41.6404 75.0789 41.6404Z" fill="#00FFF2"/>
<path d="M67.8234 24.2902C71.6089 20.5047 77.918 20.5047 82.0189 24.2902C85.8044 28.0757 85.8044 34.3849 82.0189 38.4858" fill="#16D8D8"/>
<path d="M75.0789 37.224C78.2149 37.224 80.7571 34.6817 80.7571 31.5457C80.7571 28.4097 78.2149 25.8675 75.0789 25.8675C71.9429 25.8675 69.4006 28.4097 69.4006 31.5457C69.4006 34.6817 71.9429 37.224 75.0789 37.224Z" fill="#00FFF2"/>
<path d="M75.0789 37.224C71.9243 37.224 69.4006 34.7003 69.4006 31.5457C69.4006 28.3912 71.9243 25.8675 75.0789 25.8675" fill="#16D8D8"/>
<path d="M70.6625 30.5994C72.5789 30.5994 74.1325 29.0458 74.1325 27.1293C74.1325 25.2129 72.5789 23.6593 70.6625 23.6593C68.746 23.6593 67.1924 25.2129 67.1924 27.1293C67.1924 29.0458 68.746 30.5994 70.6625 30.5994Z" fill="#EBFFFD"/>
<path d="M80.7571 38.1703C81.6282 38.1703 82.3344 37.4642 82.3344 36.593C82.3344 35.7219 81.6282 35.0158 80.7571 35.0158C79.886 35.0158 79.1798 35.7219 79.1798 36.593C79.1798 37.4642 79.886 38.1703 80.7571 38.1703Z" fill="#EBFFFD"/>
<path d="M135.016 31.5457C135.016 36.9085 130.599 45.4259 124.921 45.4259C119.558 45.4259 114.826 37.224 114.826 31.5457C114.826 26.183 119.243 21.4511 124.921 21.4511C130.599 21.4511 135.016 25.8675 135.016 31.5457Z" fill="#0B6382"/>
<path d="M124.921 41.6404C130.496 41.6404 135.016 37.1209 135.016 31.5457C135.016 25.9706 130.496 21.4511 124.921 21.4511C119.346 21.4511 114.826 25.9706 114.826 31.5457C114.826 37.1209 119.346 41.6404 124.921 41.6404Z" fill="#00FFF2"/>
<path d="M117.981 24.2902C121.767 20.5047 128.076 20.5047 132.177 24.2902C135.962 28.0757 135.962 34.3849 132.177 38.4858" fill="#16D8D8"/>
<path d="M124.921 37.224C128.057 37.224 130.599 34.6817 130.599 31.5457C130.599 28.4097 128.057 25.8675 124.921 25.8675C121.785 25.8675 119.243 28.4097 119.243 31.5457C119.243 34.6817 121.785 37.224 124.921 37.224Z" fill="#00FFF2"/>
<path d="M124.921 37.224C121.767 37.224 119.243 34.7003 119.243 31.5457C119.243 28.3912 121.767 25.8675 124.921 25.8675" fill="#16D8D8"/>
<path d="M120.505 30.5994C122.421 30.5994 123.975 29.0458 123.975 27.1293C123.975 25.2129 122.421 23.6593 120.505 23.6593C118.588 23.6593 117.035 25.2129 117.035 27.1293C117.035 29.0458 118.588 30.5994 120.505 30.5994Z" fill="#E8FEFC"/>
<path d="M130.599 38.1703C131.47 38.1703 132.177 37.4642 132.177 36.593C132.177 35.7219 131.47 35.0158 130.599 35.0158C129.728 35.0158 129.022 35.7219 129.022 36.593C129.022 37.4642 129.728 38.1703 130.599 38.1703Z" fill="#E8FEFC"/>
<path d="M100 200C122.649 200 141.009 197.881 141.009 195.268C141.009 192.655 122.649 190.536 100 190.536C77.3511 190.536 58.9905 192.655 58.9905 195.268C58.9905 197.881 77.3511 200 100 200Z" fill="#91C6C2"/>
<path d="M75.3943 55.836L62.1451 40.0631H37.8549C37.5395 43.2177 37.224 46.3722 37.224 46.3722H59.6215L74.7634 62.1451H96.8455V55.836H75.3943Z" fill="#1B9A94"/>
<path d="M36.9085 46.3722H59.6214L74.7634 62.1451H96.8454V60.2524L75.0789 58.3596L62.1451 43.2177" fill="#0AC6C6"/>
<path d="M124.606 55.836L137.855 40.0631H162.145C162.461 43.2177 162.776 46.3722 162.776 46.3722H140.379L125.237 62.1451H103.155V55.836H124.606Z" fill="#0AC6C6"/>
<path d="M163.091 46.3722H140.379L125.237 62.1451H103.155V60.2524L124.921 58.3596L137.855 43.2177" fill="#0AC6C6"/>
<path d="M100 64.3533C103.484 64.3533 106.309 61.5286 106.309 58.0442C106.309 54.5597 103.484 51.735 100 51.735C96.5156 51.735 93.6909 54.5597 93.6909 58.0442C93.6909 61.5286 96.5156 64.3533 100 64.3533Z" fill="#00FFF2"/>
<path d="M106.309 58.0442C106.309 61.5142 103.47 64.3533 100 64.3533C96.53 64.3533 93.6909 61.5142 93.6909 58.0442" fill="#12A4A4"/>
<path d="M37.224 68.4543L36.9085 67.8233C36.9085 68.1388 36.5931 68.1388 36.5931 68.4543C36.5931 105.363 49.2114 142.902 68.1388 164.353V79.1798L56.4669 68.4543H37.224Z" fill="#0B7F9E"/>
<path d="M37.224 66.2461L36.9085 66.877C36.9085 67.1924 36.5931 67.8234 36.5931 68.1388C36.5931 105.047 49.2114 143.218 68.1388 164.669V77.918" fill="#00182C"/>
<path d="M162.461 68.4543L162.776 67.8233C162.776 68.1388 163.092 68.1388 163.092 68.4543C163.092 105.363 150.473 141.325 131.546 163.091V79.1798L143.218 68.4543H162.461Z" fill="#0B7F9E"/>
<path d="M162.776 66.2461V66.877C162.776 67.1924 163.092 67.8234 163.092 68.1388C163.092 105.047 150.473 143.218 131.546 164.669V77.918" fill="#023850"/>
<path d="M19.8738 136.278C28.7592 136.278 35.9621 129.075 35.9621 120.189C35.9621 111.304 28.7592 104.101 19.8738 104.101C10.9885 104.101 3.78549 111.304 3.78549 120.189C3.78549 129.075 10.9885 136.278 19.8738 136.278Z" fill="#0B6382"/>
<path d="M19.8738 104.416C28.7066 104.416 35.9621 111.672 35.9621 120.505C35.9621 129.338 28.7066 136.593 19.8738 136.593" fill="#00182C"/>
<path d="M19.8738 101.262C21.9645 101.262 23.6593 99.567 23.6593 97.4763C23.6593 95.3857 21.9645 93.6908 19.8738 93.6908C17.7831 93.6908 16.0883 95.3857 16.0883 97.4763C16.0883 99.567 17.7831 101.262 19.8738 101.262Z" fill="#00182C"/>
<path d="M21.1357 93.6908V77.918H30.5994V65.2997H36.9085" fill="#16D8D8"/>
<path d="M43.8338 82.2237C43.1465 73.5393 40.1958 66.6887 37.2432 66.9224C34.2906 67.1561 32.4542 74.3856 33.1415 83.0699C33.8289 91.7542 36.7796 98.6048 39.7322 98.3712C42.6848 98.1375 44.5212 90.908 43.8338 82.2237Z" fill="#0B7F9E"/>
<path d="M38.7867 82.4792C38.3748 77.2687 37.0553 73.1227 35.8396 73.2188C34.6238 73.3149 33.9721 77.6167 34.384 82.8272C34.7958 88.0377 36.1153 92.1837 37.3311 92.0876C38.5468 91.9915 39.1985 87.6897 38.7867 82.4792Z" fill="#0B6382"/>
<path d="M50.1577 84.5426C50.8546 84.5426 51.4195 83.9776 51.4195 83.2807C51.4195 82.5839 50.8546 82.0189 50.1577 82.0189C49.4608 82.0189 48.8959 82.5839 48.8959 83.2807C48.8959 83.9776 49.4608 84.5426 50.1577 84.5426Z" fill="#16D8D8"/>
<path d="M55.205 82.9653C55.9019 82.9653 56.4668 82.4004 56.4668 81.7035C56.4668 81.0066 55.9019 80.4416 55.205 80.4416C54.5081 80.4416 53.9432 81.0066 53.9432 81.7035C53.9432 82.4004 54.5081 82.9653 55.205 82.9653Z" fill="#16D8D8"/>
<path d="M60.2524 81.7035C60.9493 81.7035 61.5142 81.1385 61.5142 80.4416C61.5142 79.7447 60.9493 79.1798 60.2524 79.1798C59.5555 79.1798 58.9905 79.7447 58.9905 80.4416C58.9905 81.1385 59.5555 81.7035 60.2524 81.7035Z" fill="#16D8D8"/>
<path d="M27.4448 123.659C27.4448 124.606 26.8139 125.237 25.8675 125.237H13.2492C12.3029 125.237 11.6719 124.606 11.6719 123.659C11.6719 122.713 12.3029 122.082 13.2492 122.082H25.8675C26.8139 122.082 27.4448 122.713 27.4448 123.659Z" fill="#00FFF2"/>
<path d="M180.126 136.278C189.012 136.278 196.215 129.075 196.215 120.189C196.215 111.304 189.012 104.101 180.126 104.101C171.241 104.101 164.038 111.304 164.038 120.189C164.038 129.075 171.241 136.278 180.126 136.278Z" fill="#0B6382"/>
<path d="M180.126 104.416C171.293 104.416 164.038 111.672 164.038 120.505C164.038 129.338 171.293 136.593 180.126 136.593" fill="#00182C"/>
<path d="M180.126 101.262C182.217 101.262 183.912 99.567 183.912 97.4763C183.912 95.3857 182.217 93.6908 180.126 93.6908C178.036 93.6908 176.341 95.3857 176.341 97.4763C176.341 99.567 178.036 101.262 180.126 101.262Z" fill="#00182C"/>
<path d="M178.864 93.6908V77.918H169.401V65.2997H163.091" fill="#16D8D8"/>
<path d="M156.337 82.317C155.65 91.0014 157.487 98.2308 160.439 98.4645C163.392 98.6982 166.342 91.8476 167.03 83.1633C167.717 74.479 165.881 67.2495 162.928 67.0158C159.976 66.7821 157.025 73.6327 156.337 82.317Z" fill="#0B7F9E"/>
<path d="M161.141 82.7193C160.729 87.9298 161.381 92.2316 162.596 92.3277C163.812 92.4238 165.132 88.2778 165.544 83.0673C165.955 77.8569 165.304 73.555 164.088 73.4589C162.872 73.3628 161.553 77.5089 161.141 82.7193Z" fill="#0B6382"/>
<path d="M149.842 84.5426C150.539 84.5426 151.104 83.9776 151.104 83.2807C151.104 82.5839 150.539 82.0189 149.842 82.0189C149.145 82.0189 148.58 82.5839 148.58 83.2807C148.58 83.9776 149.145 84.5426 149.842 84.5426Z" fill="#16D8D8"/>
<path d="M144.795 82.9653C145.492 82.9653 146.057 82.4004 146.057 81.7035C146.057 81.0066 145.492 80.4416 144.795 80.4416C144.098 80.4416 143.533 81.0066 143.533 81.7035C143.533 82.4004 144.098 82.9653 144.795 82.9653Z" fill="#16D8D8"/>
<path d="M139.748 81.7035C140.445 81.7035 141.009 81.1385 141.009 80.4416C141.009 79.7447 140.445 79.1798 139.748 79.1798C139.051 79.1798 138.486 79.7447 138.486 80.4416C138.486 81.1385 139.051 81.7035 139.748 81.7035Z" fill="#16D8D8"/>
<path d="M188.328 123.659C188.328 122.713 187.697 122.082 186.751 122.082H174.132C173.186 122.082 172.555 122.713 172.555 123.659C172.555 124.606 173.186 125.237 174.132 125.237H186.751C187.697 125.237 188.328 124.606 188.328 123.659Z" fill="#00FFF2"/>
</g>
<defs>
<clipPath id="clip0_201_2">
<rect width="200" height="200" fill="white"/>
</clipPath>
</defs>
</svg>
